<svg width="25" height="25" viewBox="0 0 25 25" fill="none" xmlns="http://www.w3.org/2000/svg">
<path d="M18.75 3.125H6.25C5.4212 3.125 4.62634 3.45424 4.04029 4.04029C3.45424 4.62634 3.125 5.4212 3.125 6.25V18.75C3.125 19.5788 3.45424 20.3737 4.04029 20.9597C4.62634 21.5458 5.4212 21.875 6.25 21.875H18.75C19.5788 21.875 20.3737 21.5458 20.9597 20.9597C21.5458 20.3737 21.875 19.5788 21.875 18.75V6.25C21.875 5.4212 21.5458 4.62634 20.9597 4.04029C20.3737 3.45424 19.5788 3.125 18.75 3.125ZM19.7917 18.75C19.7917 19.0263 19.6819 19.2912 19.4866 19.4866C19.2912 19.6819 19.0263 19.7917 18.75 19.7917H6.25C5.97373 19.7917 5.70878 19.6819 5.51343 19.4866C5.31808 19.2912 5.20833 19.0263 5.20833 18.75V6.25C5.20833 5.97373 5.31808 5.70878 5.51343 5.51343C5.70878 5.31808 5.97373 5.20833 6.25 5.20833H18.75C19.0263 5.20833 19.2912 5.31808 19.4866 5.51343C19.6819 5.70878 19.7917 5.97373 19.7917 6.25V18.75Z" fill="#FEFAE3"/>
<path d="M15.6252 11.4584H13.5418V9.3751C13.5418 9.09883 13.4321 8.83388 13.2367 8.63853C13.0414 8.44318 12.7764 8.33344 12.5002 8.33344C12.2239 8.33344 11.9589 8.44318 11.7636 8.63853C11.5682 8.83388 11.4585 9.09883 11.4585 9.3751V11.4584H9.37516C9.0989 11.4584 8.83394 11.5682 8.63859 11.7635C8.44324 11.9589 8.3335 12.2238 8.3335 12.5001C8.3335 12.7764 8.44324 13.0413 8.63859 13.2367C8.83394 13.432 9.0989 13.5418 9.37516 13.5418H11.4585V15.6251C11.4585 15.9014 11.5682 16.1663 11.7636 16.3617C11.9589 16.557 12.2239 16.6668 12.5002 16.6668C12.7764 16.6668 13.0414 16.557 13.2367 16.3617C13.4321 16.1663 13.5418 15.9014 13.5418 15.6251V13.5418H15.6252C15.9014 13.5418 16.1664 13.432 16.3617 13.2367C16.5571 13.0413 16.6668 12.7764 16.6668 12.5001C16.6668 12.2238 16.5571 11.9589 16.3617 11.7635C16.1664 11.5682 15.9014 11.4584 15.6252 11.4584Z" fill="#FEFAE3"/>
</svg>
